<?xml version="1.0" encoding="UTF-8"?>
<svg id="Layer_1" data-name="Layer 1" xmlns="http://www.w3.org/2000/svg" viewBox="0 0 182 223">
  <defs>
    <style>
      .cls-1 {
        fill: none;
        stroke: #515151;
        stroke-miterlimit: 10;
        stroke-width: 3px;
      }

      .cls-2 {
        fill: #515151;
      }
    </style>
  </defs>
  <g>
    <path class="cls-1" d="M20.83,200.3c7.08-15.14,14.05-32.95,19.63-53.28,12.15-44.27,13.1-83.53,11.22-112.17h107.18c.54,18.87-.11,34.59-.88,45.97-2.6,38.48-9.3,67.99-13.54,86.34-3.45,14.93-6.85,27.17-9.31,35.55-38.1-.8-76.19-1.61-114.29-2.41Z"/>
    <g>
      <path class="cls-2" d="M60.91,46.83c.82,6.51,1.33,14.25,1,22.93-.31,8.11-1.3,15.32-2.49,21.44h86.25c1.54-6.71,2.86-15.16,2.99-24.93,.1-7.77-.57-14.67-1.5-20.44-28.75,.33-57.5,.66-86.25,1Z"/>
      <path class="cls-2" d="M58.36,99.34c29.37,.14,58.75,.27,88.12,.41-.07,1.24-.18,2.52-.32,3.85-.21,1.96-.47,3.81-.77,5.56H56.17c.57-1.25,1.19-2.87,1.62-4.81,.43-1.93,.56-3.64,.58-5.01Z"/>
      <path class="cls-2" d="M46.88,166.08c29.37,.14,58.75,.27,88.12,.41-.07,1.24-.18,2.52-.32,3.85-.21,1.96-.47,3.81-.77,5.56H44.69c.57-1.25,1.19-2.87,1.62-4.81,.43-1.93,.56-3.64,.58-5.01Z"/>
      <path class="cls-2" d="M65.34,114.47c-.52,3.6-1.25,7.47-2.26,11.54-.63,2.55-1.33,4.97-2.06,7.26h19.15c.63-2.5,1.22-5.14,1.74-7.91,.71-3.76,1.2-7.34,1.54-10.7-6.04-.06-12.07-.12-18.11-.19Z"/>
      <path class="cls-2" d="M90.21,114.47c-.52,3.6-1.25,7.47-2.26,11.54-.63,2.55-1.33,4.97-2.06,7.26h19.15c.63-2.5,1.22-5.14,1.74-7.91,.71-3.76,1.2-7.34,1.54-10.7-6.04-.06-12.07-.12-18.11-.19Z"/>
      <path class="cls-2" d="M115.09,114.47c-.52,3.6-1.25,7.47-2.26,11.54-.63,2.55-1.33,4.97-2.06,7.26h19.15c.63-2.5,1.22-5.14,1.74-7.91,.71-3.76,1.2-7.34,1.54-10.7-6.04-.06-12.07-.12-18.11-.19Z"/>
      <path class="cls-2" d="M60.49,140.55c-.52,3.6-1.25,7.47-2.26,11.54-.63,2.55-1.33,4.97-2.06,7.26h19.15c.63-2.5,1.22-5.14,1.74-7.91,.71-3.76,1.2-7.34,1.54-10.7-6.04-.06-12.07-.12-18.11-.19Z"/>
      <path class="cls-2" d="M85.36,140.55c-.52,3.6-1.25,7.47-2.26,11.54-.63,2.55-1.33,4.97-2.06,7.26h19.15c.63-2.5,1.22-5.14,1.74-7.91,.71-3.76,1.2-7.34,1.54-10.7-6.04-.06-12.07-.12-18.11-.19Z"/>
      <path class="cls-2" d="M110.24,140.55c-.52,3.6-1.25,7.47-2.26,11.54-.63,2.55-1.33,4.97-2.06,7.26h19.15c.63-2.5,1.22-5.14,1.74-7.91,.71-3.76,1.2-7.34,1.54-10.7-6.04-.06-12.07-.12-18.11-.19Z"/>
      <path class="cls-2" d="M35.86,184.78c-.69,1.85-1.45,3.74-2.27,5.68-1.27,3-2.59,5.81-3.91,8.45,32.24,1.05,64.83,1.07,97.08,2.11,.64-1.93,.94-2.87,1.55-4.89,1.07-3.49,2.03-6.9,2.9-10.22-31.78-.38-63.57-.76-95.35-1.14Z"/>
    </g>
    <rect class="cls-2" x="51.67" y="34.85" width="107.31" height="5.69"/>
  </g>
  <g>
    <polygon class="cls-2" points="137.67 156.28 137.67 179.11 157.43 167.69 137.67 156.28"/>
    <polygon class="cls-2" points="142.18 172.17 150.5 186.85 158.39 182.27 149.96 168.03 142.18 172.17"/>
  </g>
</svg>