<?xml version="1.0" encoding="UTF-8"?>
<svg id="Layer_1" data-name="Layer 1" xmlns="http://www.w3.org/2000/svg" viewBox="0 0 1425.58 375.15">
  <defs>
    <style>
      .cls-1 {
        fill: #f3423e;
      }

      .cls-2 {
        fill: #fcc76b;
      }

      .cls-3 {
        fill: #1db495;
      }
    </style>
  </defs>
  <g>
    <g id="LA0F0k.tif">
      <g>
        <path class="cls-2" d="M37.72,82.13c.76-.48,1.52-.96,2.29-1.45,1.05-.67,2.45-.35,3.11,.71l.05,.08c.65,1.05,.33,2.42-.71,3.08-.76,.48-1.52,.96-2.29,1.44-1.03,.65-2.4,.36-3.07-.67l-.05-.07c-.69-1.05-.38-2.45,.68-3.12Z"/>
        <path class="cls-2" d="M16.38,100.15l-.06-.07c-.77-.98-.59-2.4,.4-3.16,.71-.55,1.42-1.09,2.15-1.65,.99-.76,2.41-.57,3.16,.42l.05,.07c.74,.98,.55,2.38-.42,3.13-.71,.55-1.42,1.09-2.14,1.65-.97,.75-2.37,.58-3.13-.39Z"/>
        <path class="cls-2" d="M168.79,40.56v-.08c-.1-1.24,.82-2.32,2.06-2.41l2.72-.2c1.23-.09,2.31,.86,2.38,2.1v.06c.08,1.22-.84,2.27-2.05,2.37l-2.69,.22c-1.24,.1-2.32-.82-2.42-2.06Z"/>
        <path class="cls-2" d="M232.56,42.89v-.08c.21-1.23,1.37-2.07,2.6-1.86,.89,.15,1.77,.3,2.66,.45,1.22,.21,2.05,1.37,1.84,2.59,0,.03,0,.05-.01,.08-.21,1.22-1.36,2.04-2.58,1.84-.89-.15-1.77-.3-2.66-.44-1.21-.2-2.04-1.35-1.85-2.56Z"/>
        <path class="cls-2" d="M123.88,50.02c-.87,.22-1.73,.44-2.61,.67-1.18,.3-2.39-.39-2.71-1.57l-.02-.09c-.34-1.21,.38-2.46,1.6-2.77,.87-.22,1.74-.45,2.62-.67,1.21-.31,2.44,.42,2.74,1.63l.02,.09c.29,1.19-.43,2.4-1.62,2.71Z"/>
        <path class="cls-2" d="M100.86,54.32l.03,.08c.39,1.16-.21,2.41-1.36,2.83l-2.54,.92c-1.16,.42-2.44-.18-2.86-1.34l-.03-.08c-.42-1.17,.18-2.45,1.35-2.87l2.54-.91c1.18-.42,2.47,.2,2.88,1.39Z"/>
        <path class="cls-2" d="M113.08,50.5l.02,.08c.34,1.17-.33,2.4-1.5,2.76l-2.58,.8c-1.18,.36-2.43-.3-2.8-1.48l-.02-.08c-.37-1.18,.3-2.44,1.48-2.81l2.58-.79c1.19-.37,2.46,.32,2.81,1.52Z"/>
        <path class="cls-2" d="M32.4,88.33l.05,.07c.69,1.02,.43,2.4-.58,3.1l-2.23,1.55c-1,.69-2.38,.46-3.09-.53l-.05-.07c-.73-1.02-.49-2.43,.54-3.15l2.23-1.56c1.01-.7,2.42-.45,3.13,.59Z"/>
        <path class="cls-2" d="M136.17,47.27l-2.63,.54c-1.2,.25-2.37-.52-2.64-1.71l-.02-.08c-.27-1.22,.51-2.43,1.74-2.68,.87-.18,1.75-.36,2.63-.54,1.22-.25,2.42,.55,2.65,1.78l.02,.08c.23,1.2-.55,2.37-1.75,2.61Z"/>
        <path class="cls-2" d="M300.76,62.06s-.01,.03-.02,.04c-.48,1.14-1.79,1.67-2.93,1.21-.83-.34-1.65-.67-2.48-1.01-1.14-.47-1.7-1.77-1.25-2.92,0-.01,.01-.03,.02-.04,.46-1.17,1.79-1.74,2.96-1.26,.83,.34,1.65,.68,2.48,1.02,1.16,.48,1.71,1.82,1.22,2.97Z"/>
        <path class="cls-2" d="M222.32,39.2l2.68,.32c1.24,.15,2.12,1.28,1.95,2.52v.07c-.17,1.22-1.28,2.08-2.5,1.93-.89-.11-1.78-.21-2.68-.32-1.23-.15-2.1-1.25-1.96-2.48v-.08c.15-1.23,1.27-2.12,2.5-1.97Z"/>
        <path class="cls-2" d="M252.14,46.51l-.02,.08c-.27,1.2-1.46,1.95-2.65,1.69-.88-.19-1.75-.37-2.64-.56-1.2-.26-1.97-1.42-1.73-2.62,0-.03,.01-.06,.02-.08,.24-1.23,1.44-2.02,2.67-1.76,.88,.19,1.75,.37,2.64,.56,1.22,.26,2,1.47,1.72,2.69Z"/>
        <path class="cls-2" d="M260.31,46.13c.88,.22,1.74,.44,2.61,.66,1.21,.31,1.94,1.55,1.61,2.75,0,.03-.01,.05-.02,.08-.32,1.18-1.53,1.89-2.72,1.59-.87-.22-1.73-.44-2.61-.66-1.19-.3-1.92-1.51-1.63-2.7,0-.03,.01-.05,.02-.08,.3-1.21,1.52-1.95,2.73-1.64Z"/>
        <path class="cls-2" d="M269.97,51.16s.02-.05,.02-.08c.35-1.2,1.62-1.88,2.81-1.51,.86,.26,1.72,.53,2.58,.8,1.19,.37,1.85,1.63,1.48,2.82,0,.03-.02,.05-.03,.08-.37,1.17-1.62,1.83-2.8,1.46-.86-.26-1.71-.53-2.58-.8-1.17-.36-1.84-1.6-1.49-2.77Z"/>
        <path class="cls-2" d="M70.53,66.67l-.04-.08c-.53-1.13-.04-2.48,1.1-2.99,.82-.37,1.64-.74,2.47-1.12,1.13-.51,2.47,0,2.98,1.13l.04,.08c.5,1.12,0,2.44-1.12,2.95-.82,.37-1.64,.75-2.46,1.12-1.12,.51-2.44,.03-2.96-1.09Z"/>
        <path class="cls-2" d="M60.05,69.26c.81-.42,1.61-.83,2.42-1.24,1.11-.57,2.46-.13,3.02,.98l.03,.06c.55,1.1,.12,2.43-.97,3-.8,.42-1.61,.83-2.42,1.25-1.09,.57-2.43,.15-3.01-.93l-.04-.08c-.59-1.1-.16-2.48,.96-3.05Z"/>
        <path class="cls-2" d="M48.8,75.41l2.35-1.34c1.08-.62,2.46-.23,3.06,.85l.04,.08c.6,1.07,.23,2.43-.84,3.04-.78,.45-1.56,.89-2.34,1.34-1.07,.61-2.43,.25-3.05-.81l-.05-.08c-.63-1.08-.26-2.46,.82-3.08Z"/>
        <path class="cls-2" d="M161.3,43.46c-.9,.11-1.78,.21-2.67,.31-1.22,.14-2.32-.72-2.48-1.93v-.08c-.18-1.24,.71-2.38,1.96-2.52,.89-.1,1.78-.21,2.67-.31,1.25-.14,2.37,.76,2.49,2.01,0,.02,0,.05,0,.07,.12,1.22-.76,2.3-1.97,2.44Z"/>
        <path class="cls-2" d="M148.64,45.09c-.89,.14-1.77,.28-2.66,.41-1.21,.19-2.34-.62-2.55-1.82v-.08c-.23-1.23,.61-2.41,1.84-2.6,.87-.14,1.76-.28,2.66-.42,1.23-.19,2.38,.65,2.57,1.88v.08c.2,1.22-.64,2.36-1.86,2.55Z"/>
        <path class="cls-2" d="M82.28,61.45l-.03-.08c-.49-1.15,.06-2.49,1.23-2.95,.83-.33,1.67-.67,2.51-1.01,1.15-.46,2.46,.09,2.92,1.25l.03,.08c.46,1.15-.1,2.45-1.24,2.91-.83,.34-1.67,.67-2.51,1.01-1.13,.46-2.43-.08-2.9-1.2Z"/>
        <path class="cls-2" d="M288.89,57.36l-.03,.08c-.43,1.14-1.7,1.73-2.85,1.32-.85-.3-1.7-.61-2.55-.91-1.15-.41-1.76-1.66-1.37-2.82l.02-.06c.4-1.18,1.68-1.82,2.86-1.41,.85,.3,1.7,.59,2.56,.9,1.19,.42,1.81,1.73,1.36,2.91Z"/>
        <rect class="cls-2" x="194.48" y="37.54" width="7.01" height="4.48" rx="2.24" ry="2.24"/>
        <rect class="cls-2" x="181.58" y="37.49" width="7.01" height="4.48" rx="2.24" ry="2.24"/>
        <rect class="cls-2" x="208.5" y="36.85" width="4.48" height="7.01" rx="2.24" ry="2.24" transform="translate(155.72 247.75) rotate(-85.98)"/>
      </g>
    </g>
    <path class="cls-2" d="M312.2,66.49c-1.69-5.11-3.37-10.21-5.07-15.32-.12-.35-.31-.67-.47-1-.18-.09-.36-.18-.53-.27-.46-.03-.86,.1-1.2,.4-.09,.18-.18,.36-.27,.54,.02,.12,.04,.25,.06,.37-.34,0-.65,.11-.91,.33-.08,.16-.16,.31-.23,.47,.06,.3,.08,.62,.18,.91,0,.03,.02,.06,.03,.09-.07-.03-.13-.07-.2-.1-.33-.02-.61,.07-.86,.29-.06,.13-.13,.26-.19,.38,.05,.25,.07,.51,.15,.75,.02,.05,.03,.09,.05,.14-.06-.03-.13-.06-.19-.1,0,0,0,0,0,0l3.61,10.27s.01,.03,.02,.04c-.01,0-.02,0-.03,.01,0-.02,0-.04,.01-.06l-10.43,3.53s0,0,0,0c-.23,.08-.45,.21-.67,.32-.06,.13-.13,.26-.19,.38,0,.02,.02,.03,.02,.05-.01,.43,.14,.73,.4,.88-.29,.1-.55,.26-.83,.39-.08,.16-.16,.31-.23,.47,0,.02,.02,.04,.02,.06,0,.35,.07,.63,.22,.84-.09,.05-.18,.09-.27,.14-.09,.18-.18,.36-.27,.53,0,.02,.02,.05,.02,.07-.03,1.09,.69,1.62,1.74,1.27,5.19-1.73,10.37-3.46,15.56-5.18,1.04-.35,1.31-.87,.96-1.91Zm-4.23-.93s0-.03,0-.05c0,.01,.01,.02,.02,.04-.01,0-.02,0-.03,.01Z"/>
  </g>
  <g>
    <g id="LA0F0k.tif-2" data-name="LA0F0k.tif">
      <g>
        <path class="cls-3" d="M551.89,279.46c.76,.48,1.52,.96,2.29,1.45,1.05,.67,2.45,.35,3.11-.71l.05-.08c.65-1.05,.33-2.42-.71-3.08-.76-.48-1.52-.96-2.29-1.44-1.03-.65-2.4-.36-3.07,.67l-.05,.07c-.69,1.05-.38,2.45,.68,3.12Z"/>
        <path class="cls-3" d="M530.55,261.44l-.06,.07c-.77,.98-.59,2.4,.4,3.16,.71,.55,1.42,1.09,2.15,1.65,.99,.76,2.41,.57,3.16-.42l.05-.07c.74-.98,.55-2.38-.42-3.13-.71-.55-1.42-1.09-2.14-1.65-.97-.75-2.37-.58-3.13,.39Z"/>
        <path class="cls-3" d="M682.96,321.03v.08c-.1,1.24,.82,2.32,2.06,2.41l2.72,.2c1.23,.09,2.31-.86,2.38-2.1v-.06c.08-1.22-.84-2.27-2.05-2.37l-2.69-.22c-1.24-.1-2.32,.82-2.42,2.06Z"/>
        <path class="cls-3" d="M746.73,318.69v.08c.21,1.23,1.37,2.07,2.6,1.86,.89-.15,1.77-.3,2.66-.45,1.22-.21,2.05-1.37,1.84-2.59,0-.03,0-.05-.01-.08-.21-1.22-1.36-2.04-2.58-1.84-.89,.15-1.77,.3-2.66,.44-1.21,.2-2.04,1.35-1.85,2.56Z"/>
        <path class="cls-3" d="M638.04,311.57c-.87-.22-1.73-.44-2.61-.67-1.18-.3-2.39,.39-2.71,1.57l-.02,.09c-.34,1.21,.38,2.46,1.6,2.77,.87,.22,1.74,.45,2.62,.67,1.21,.31,2.44-.42,2.74-1.63l.02-.09c.29-1.19-.43-2.4-1.62-2.71Z"/>
        <path class="cls-3" d="M615.03,307.27l.03-.08c.39-1.16-.21-2.41-1.36-2.83l-2.54-.92c-1.16-.42-2.44,.18-2.86,1.34l-.03,.08c-.42,1.17,.18,2.45,1.35,2.87l2.54,.91c1.18,.42,2.47-.2,2.88-1.39Z"/>
        <path class="cls-3" d="M627.25,311.08l.02-.08c.34-1.17-.33-2.4-1.5-2.76l-2.58-.8c-1.18-.36-2.43,.3-2.8,1.48l-.02,.08c-.37,1.18,.3,2.44,1.48,2.81l2.58,.79c1.19,.37,2.46-.32,2.81-1.52Z"/>
        <path class="cls-3" d="M546.56,273.26l.05-.07c.69-1.02,.43-2.4-.58-3.1l-2.23-1.55c-1-.69-2.38-.46-3.09,.53l-.05,.07c-.73,1.02-.49,2.43,.54,3.15l2.23,1.56c1.01,.7,2.42,.45,3.13-.59Z"/>
        <path class="cls-3" d="M650.34,314.31l-2.63-.54c-1.2-.25-2.37,.52-2.64,1.71l-.02,.08c-.27,1.22,.51,2.43,1.74,2.68,.87,.18,1.75,.36,2.63,.54,1.22,.25,2.42-.55,2.65-1.78l.02-.08c.23-1.2-.55-2.37-1.75-2.61Z"/>
        <path class="cls-3" d="M814.93,299.53s-.01-.03-.02-.04c-.48-1.14-1.79-1.67-2.93-1.21-.83,.34-1.65,.67-2.48,1.01-1.14,.47-1.7,1.77-1.25,2.92,0,.01,.01,.03,.02,.04,.46,1.17,1.79,1.74,2.96,1.26,.83-.34,1.65-.68,2.48-1.02,1.16-.48,1.71-1.82,1.22-2.97Z"/>
        <path class="cls-3" d="M736.49,322.39l2.68-.32c1.24-.15,2.12-1.28,1.95-2.52v-.07c-.17-1.22-1.28-2.08-2.5-1.93-.89,.11-1.78,.21-2.68,.32-1.23,.15-2.1,1.25-1.96,2.48v.08c.15,1.23,1.27,2.12,2.5,1.97Z"/>
        <path class="cls-3" d="M766.31,315.07l-.02-.08c-.27-1.2-1.46-1.95-2.65-1.69-.88,.19-1.75,.37-2.64,.56-1.2,.26-1.97,1.42-1.73,2.62,0,.03,.01,.06,.02,.08,.24,1.23,1.44,2.02,2.67,1.76,.88-.19,1.75-.37,2.64-.56,1.22-.26,2-1.47,1.72-2.69Z"/>
        <path class="cls-3" d="M774.48,315.46c.88-.22,1.74-.44,2.61-.66,1.21-.31,1.94-1.55,1.61-2.75,0-.03-.01-.05-.02-.08-.32-1.18-1.53-1.89-2.72-1.59-.87,.22-1.73,.44-2.61,.66-1.19,.3-1.92,1.51-1.63,2.7,0,.03,.01,.05,.02,.08,.3,1.21,1.52,1.95,2.73,1.64Z"/>
        <path class="cls-3" d="M784.14,310.43s.02,.05,.02,.08c.35,1.2,1.62,1.88,2.81,1.51,.86-.26,1.72-.53,2.58-.8,1.19-.37,1.85-1.63,1.48-2.82,0-.03-.02-.05-.03-.08-.37-1.17-1.62-1.83-2.8-1.46-.86,.26-1.71,.53-2.58,.8-1.17,.36-1.84,1.6-1.49,2.77Z"/>
        <path class="cls-3" d="M584.7,294.92l-.04,.08c-.53,1.13-.04,2.48,1.1,2.99,.82,.37,1.64,.74,2.47,1.12,1.13,.51,2.47,0,2.98-1.13l.04-.08c.5-1.12,0-2.44-1.12-2.95-.82-.37-1.64-.75-2.46-1.12-1.12-.51-2.44-.03-2.96,1.09Z"/>
        <path class="cls-3" d="M574.22,292.33c.81,.42,1.61,.83,2.42,1.24,1.11,.57,2.46,.13,3.02-.98l.03-.06c.55-1.1,.12-2.43-.97-3-.8-.42-1.61-.83-2.42-1.25-1.09-.57-2.43-.15-3.01,.93l-.04,.08c-.59,1.1-.16,2.48,.96,3.05Z"/>
        <path class="cls-3" d="M562.97,286.18l2.35,1.34c1.08,.62,2.46,.23,3.06-.85l.04-.08c.6-1.07,.23-2.43-.84-3.04-.78-.45-1.56-.89-2.34-1.34-1.07-.61-2.43-.25-3.05,.81l-.05,.08c-.63,1.08-.26,2.46,.82,3.08Z"/>
        <path class="cls-3" d="M675.47,318.13c-.9-.11-1.78-.21-2.67-.31-1.22-.14-2.32,.72-2.48,1.93v.08c-.18,1.24,.71,2.38,1.96,2.52,.89,.1,1.78,.21,2.67,.31,1.25,.14,2.37-.76,2.49-2.01,0-.02,0-.05,0-.07,.12-1.22-.76-2.3-1.97-2.44Z"/>
        <path class="cls-3" d="M662.8,316.5c-.89-.14-1.77-.28-2.66-.41-1.21-.19-2.34,.62-2.55,1.82v.08c-.23,1.23,.61,2.41,1.84,2.6,.87,.14,1.76,.28,2.66,.42,1.23,.19,2.38-.65,2.57-1.88v-.08c.2-1.22-.64-2.36-1.86-2.55Z"/>
        <path class="cls-3" d="M596.45,300.14l-.03,.08c-.49,1.15,.06,2.49,1.23,2.95,.83,.33,1.67,.67,2.51,1.01,1.15,.46,2.46-.09,2.92-1.25l.03-.08c.46-1.15-.1-2.45-1.24-2.91-.83-.34-1.67-.67-2.51-1.01-1.13-.46-2.43,.08-2.9,1.2Z"/>
        <path class="cls-3" d="M803.06,304.23l-.03-.08c-.43-1.14-1.7-1.73-2.85-1.32-.85,.3-1.7,.61-2.55,.91-1.15,.41-1.76,1.66-1.37,2.82l.02,.06c.4,1.18,1.68,1.82,2.86,1.41,.85-.3,1.7-.59,2.56-.9,1.19-.42,1.81-1.73,1.36-2.91Z"/>
        <rect class="cls-3" x="708.65" y="319.56" width="7.01" height="4.48" rx="2.24" ry="2.24"/>
        <rect class="cls-3" x="695.75" y="319.62" width="7.01" height="4.48" rx="2.24" ry="2.24"/>
        <rect class="cls-3" x="721.4" y="318.99" width="7.01" height="4.48" rx="2.24" ry="2.24" transform="translate(-20.72 51.56) rotate(-4.02)"/>
      </g>
    </g>
    <path class="cls-3" d="M825.41,293.19c-5.19-1.73-10.37-3.46-15.56-5.18-1.04-.35-1.76,.18-1.74,1.27,0,.02-.01,.05-.02,.07,.09,.18,.18,.36,.27,.53,.09,.04,.18,.09,.27,.14-.15,.2-.23,.49-.22,.84,0,.02-.01,.04-.02,.06,.08,.16,.16,.31,.23,.47,.28,.13,.54,.29,.83,.39-.26,.15-.42,.45-.4,.88,0,.02-.01,.03-.02,.05,.06,.13,.13,.26,.19,.38,.22,.11,.44,.23,.67,.32,0,0,0,0,0,0l10.43,3.53s0-.04-.01-.06c.01,0,.02,0,.03,.01,0,.02-.01,.03-.02,.04l-3.61,10.27s0,0,0,0c.06-.03,.13-.06,.19-.1-.02,.05-.03,.09-.05,.14-.08,.24-.1,.5-.15,.75,.06,.13,.13,.26,.19,.38,.25,.21,.53,.31,.86,.29,.07-.03,.13-.07,.2-.1,0,.03-.02,.06-.03,.09-.1,.29-.12,.61-.18,.91,.08,.16,.16,.31,.23,.47,.26,.23,.57,.33,.91,.33-.02,.13-.04,.25-.06,.37,.09,.18,.18,.36,.27,.54,.35,.3,.75,.43,1.2,.4,.18-.09,.36-.18,.53-.27,.16-.33,.35-.65,.47-1,1.7-5.1,3.38-10.21,5.07-15.32,.34-1.04,.08-1.56-.96-1.91Zm-3.24,2.85s-.01,.02-.02,.04c0-.01,0-.03,0-.05,.01,0,.02,0,.03,.01Z"/>
  </g>
  <g>
    <g id="LA0F0k.tif-3" data-name="LA0F0k.tif">
      <g>
        <path class="cls-1" d="M1147.82,330.88c.89,.17,1.77,.35,2.66,.52,1.22,.24,2.41-.56,2.64-1.79l.02-.09c.23-1.21-.57-2.38-1.78-2.61-.88-.17-1.77-.34-2.66-.52-1.2-.23-2.37,.54-2.62,1.74l-.02,.08c-.26,1.22,.54,2.42,1.76,2.66Z"/>
        <path class="cls-1" d="M1121.4,321.84l-.03,.09c-.36,1.19,.32,2.45,1.52,2.8,.86,.25,1.72,.5,2.6,.76,1.2,.35,2.45-.34,2.79-1.54l.02-.08c.33-1.18-.35-2.42-1.53-2.76-.86-.25-1.72-.5-2.6-.76-1.18-.35-2.42,.32-2.78,1.5Z"/>
        <path class="cls-1" d="M1285.05,322.04l.02,.08c.36,1.19,1.62,1.86,2.8,1.5l2.6-.8c1.18-.36,1.84-1.64,1.46-2.83l-.02-.06c-.37-1.16-1.61-1.81-2.77-1.46l-2.59,.77c-1.19,.35-1.86,1.61-1.51,2.79Z"/>
        <path class="cls-1" d="M1343.62,296.72l.04,.07c.63,1.08,2.02,1.43,3.09,.79,.77-.46,1.54-.92,2.32-1.39,1.06-.64,1.41-2.01,.77-3.08-.01-.02-.03-.04-.04-.07-.64-1.06-2.01-1.41-3.07-.77-.77,.46-1.54,.92-2.32,1.38-1.06,.63-1.41,2-.79,3.06Z"/>
        <path class="cls-1" d="M1239.76,329.53c-.89,.11-1.78,.22-2.68,.33-1.21,.15-2.08,1.23-1.96,2.45v.09c.13,1.25,1.26,2.15,2.51,2,.89-.11,1.78-.21,2.68-.32,1.24-.15,2.12-1.28,1.96-2.52v-.09c-.17-1.22-1.29-2.08-2.51-1.93Z"/>
        <path class="cls-1" d="M1216.76,333.88v-.08c-.06-1.22-1.08-2.17-2.3-2.14l-2.7,.07c-1.23,.03-2.21,1.06-2.18,2.29v.08c.03,1.24,1.06,2.22,2.3,2.19l2.7-.07c1.25-.03,2.23-1.09,2.18-2.34Z"/>
        <path class="cls-1" d="M1229.53,333v-.08c-.12-1.22-1.18-2.12-2.4-2.03l-2.69,.2c-1.23,.09-2.16,1.16-2.07,2.39v.08c.09,1.24,1.17,2.17,2.41,2.08l2.69-.2c1.25-.09,2.18-1.19,2.06-2.44Z"/>
        <path class="cls-1" d="M1140.62,327.05l.02-.09c.27-1.2-.47-2.39-1.66-2.68l-2.64-.63c-1.18-.28-2.38,.44-2.69,1.62l-.02,.08c-.31,1.21,.43,2.45,1.64,2.74l2.65,.64c1.2,.29,2.42-.47,2.7-1.68Z"/>
        <path class="cls-1" d="M1252.22,327.63l-2.65,.45c-1.2,.21-2.02,1.34-1.83,2.55v.08c.2,1.24,1.37,2.08,2.61,1.87,.88-.15,1.76-.3,2.65-.45,1.23-.21,2.06-1.39,1.83-2.62v-.08c-.24-1.21-1.39-2.01-2.6-1.8Z"/>
        <path class="cls-1" d="M1400.21,254.11s-.02-.02-.03-.03c-.86-.88-2.27-.91-3.17-.06-.65,.61-1.29,1.23-1.94,1.84-.9,.85-.94,2.26-.1,3.17,.01,.01,.02,.02,.03,.03,.85,.93,2.3,.97,3.21,.1,.65-.62,1.29-1.23,1.94-1.85,.91-.87,.94-2.31,.06-3.21Z"/>
        <path class="cls-1" d="M1335.42,303.88l2.39-1.27c1.1-.59,1.51-1.96,.9-3.06l-.04-.07c-.59-1.07-1.94-1.47-3.02-.9-.79,.42-1.59,.84-2.38,1.27-1.09,.58-1.51,1.93-.93,3.03l.04,.07c.58,1.1,1.94,1.51,3.04,.93Z"/>
        <path class="cls-1" d="M1360.55,286.24l-.05-.07c-.69-1.01-2.06-1.29-3.09-.61-.75,.49-1.5,.99-2.25,1.48-1.02,.67-1.32,2.04-.66,3.07,.02,.02,.03,.05,.05,.07,.67,1.06,2.08,1.36,3.13,.68,.75-.49,1.5-.98,2.26-1.48,1.05-.69,1.33-2.1,.63-3.13Z"/>
        <path class="cls-1" d="M1368.3,283.63c.73-.53,1.46-1.04,2.19-1.56,1.02-.73,1.24-2.14,.5-3.15-.02-.02-.03-.04-.05-.06-.73-.99-2.11-1.21-3.11-.5-.73,.52-1.45,1.04-2.19,1.56-1,.71-1.24,2.1-.54,3.11,.02,.02,.03,.05,.05,.07,.71,1.02,2.13,1.26,3.14,.54Z"/>
        <path class="cls-1" d="M1375.48,275.44s.03,.04,.05,.07c.76,.99,2.19,1.16,3.17,.39,.7-.56,1.41-1.12,2.12-1.68,.98-.77,1.14-2.2,.35-3.17-.02-.02-.03-.04-.05-.06-.77-.96-2.17-1.11-3.14-.35-.7,.56-1.41,1.11-2.12,1.68-.96,.76-1.13,2.16-.38,3.13Z"/>
        <path class="cls-1" d="M1184.02,333.39v.09c-.09,1.25,.86,2.32,2.11,2.39,.9,.05,1.8,.1,2.7,.15,1.24,.07,2.31-.89,2.36-2.13v-.09c.06-1.23-.88-2.27-2.11-2.34-.9-.05-1.8-.1-2.7-.15-1.23-.07-2.28,.86-2.36,2.09Z"/>
        <path class="cls-1" d="M1173.3,334.78c.91,.09,1.8,.18,2.71,.28,1.24,.13,2.34-.78,2.46-2.01v-.07c.12-1.22-.76-2.31-1.98-2.44-.9-.1-1.8-.19-2.71-.29-1.22-.13-2.32,.74-2.47,1.96v.09c-.16,1.24,.74,2.37,1.99,2.5Z"/>
        <path class="cls-1" d="M1160.59,333.13l2.68,.4c1.23,.18,2.37-.67,2.55-1.91v-.09c.18-1.22-.66-2.35-1.88-2.53-.89-.13-1.77-.27-2.67-.4-1.22-.18-2.35,.65-2.55,1.86v.09c-.21,1.23,.64,2.39,1.87,2.57Z"/>
        <path class="cls-1" d="M1277.01,322.06c-.87,.23-1.74,.45-2.6,.68-1.18,.31-1.9,1.51-1.61,2.7l.02,.08c.3,1.22,1.53,1.95,2.75,1.64,.87-.23,1.73-.45,2.6-.68,1.21-.32,1.93-1.57,1.59-2.78,0-.02-.01-.05-.02-.07-.33-1.18-1.54-1.87-2.72-1.56Z"/>
        <path class="cls-1" d="M1264.62,325.14c-.88,.19-1.75,.39-2.62,.58-1.19,.26-1.95,1.43-1.72,2.63l.02,.08c.24,1.23,1.45,2.02,2.68,1.75,.87-.19,1.74-.38,2.63-.57,1.21-.27,1.98-1.47,1.71-2.68l-.02-.08c-.27-1.2-1.47-1.97-2.67-1.7Z"/>
        <path class="cls-1" d="M1196.85,333.98v.08c-.04,1.25,.96,2.29,2.21,2.31,.9,.01,1.8,.02,2.71,.03,1.24,.01,2.26-.98,2.27-2.22v-.08c.01-1.23-.98-2.25-2.21-2.26-.9-.01-1.8-.02-2.71-.03-1.22-.01-2.23,.95-2.27,2.18Z"/>
        <path class="cls-1" d="M1390.86,262.8l-.06-.06c-.82-.91-2.21-.99-3.14-.19-.68,.59-1.36,1.18-2.05,1.78-.92,.8-1.04,2.19-.26,3.13l.04,.05c.8,.96,2.23,1.08,3.18,.27,.68-.58,1.37-1.17,2.06-1.77,.96-.82,1.05-2.27,.21-3.21Z"/>
        <rect class="cls-1" x="1309.03" y="309.93" width="7.01" height="4.48" rx="2.24" ry="2.24" transform="translate(-23.79 497.72) rotate(-21.28)"/>
        <rect class="cls-1" x="1297.02" y="314.66" width="7.01" height="4.48" rx="2.24" ry="2.24" transform="translate(-26.33 493.69) rotate(-21.28)"/>
        <rect class="cls-1" x="1320.71" y="304.77" width="7.01" height="4.48" rx="2.24" ry="2.24" transform="translate(-4.19 595.36) rotate(-25.3)"/>
      </g>
    </g>
    <path class="cls-1" d="M1407.68,244.39c-5.46,.27-10.92,.54-16.38,.82-1.1,.05-1.58,.81-1.16,1.81,0,.02,0,.05,0,.07,.15,.13,.3,.27,.44,.4,.1,0,.2,.02,.3,.03-.07,.24-.04,.54,.1,.86,0,.02,0,.04,0,.06,.13,.12,.26,.23,.39,.35,.3,.02,.61,.07,.91,.07-.19,.23-.22,.57-.06,.96,0,.01,0,.03,0,.05,.11,.1,.21,.19,.32,.29,.25,.02,.49,.06,.74,.05,0,0,0,0,0,.01l11-.49s-.02-.03-.03-.05c.01,0,.02,0,.04,0,0,.02,0,.03,0,.05l.36,10.88s0,0,0,0c.05-.05,.1-.11,.14-.16,0,.05,0,.1,0,.15,.01,.25,.09,.5,.13,.75,.11,.1,.21,.19,.32,.29,.31,.11,.61,.09,.91-.05,.05-.06,.1-.11,.15-.17,0,.03,0,.06,0,.09,.02,.31,.11,.61,.16,.92,.13,.12,.26,.23,.39,.35,.33,.12,.65,.1,.97-.02,.03,.12,.06,.25,.08,.37,.15,.13,.3,.27,.44,.4,.43,.15,.85,.13,1.27-.06,.13-.15,.27-.3,.4-.44,.03-.37,.09-.74,.08-1.1-.27-5.37-.55-10.74-.84-16.11-.06-1.09-.49-1.48-1.59-1.43Zm-1.98,3.83s0,.03,0,.04c0-.01-.02-.03-.03-.04,.01,0,.02,0,.03,0Z"/>
  </g>
</svg>