<?xml version="1.0" encoding="UTF-8"?>
<svg id="Layer_1" data-name="Layer 1" xmlns="http://www.w3.org/2000/svg" viewBox="0 0 308.03 106.37">
  <defs>
    <style>
      .cls-1 {
        fill: #f3423e;
      }
    </style>
  </defs>
  <g id="LA0F0k.tif">
    <g>
      <path class="cls-1" d="M34.69,92.63c.89,.17,1.77,.35,2.66,.52,1.22,.24,2.41-.56,2.64-1.79l.02-.09c.23-1.21-.57-2.38-1.78-2.61-.88-.17-1.77-.34-2.66-.52-1.2-.23-2.37,.54-2.62,1.74l-.02,.08c-.26,1.22,.54,2.42,1.76,2.66Z"/>
      <path class="cls-1" d="M8.27,83.59l-.03,.09c-.36,1.19,.32,2.45,1.52,2.8,.86,.25,1.72,.5,2.6,.76,1.2,.35,2.45-.34,2.79-1.54l.02-.08c.33-1.18-.35-2.42-1.53-2.76-.86-.25-1.72-.5-2.6-.76-1.18-.35-2.42,.32-2.78,1.5Z"/>
      <path class="cls-1" d="M171.92,83.79l.02,.08c.36,1.19,1.62,1.86,2.8,1.5l2.6-.8c1.18-.36,1.84-1.64,1.46-2.83l-.02-.06c-.37-1.16-1.61-1.81-2.77-1.46l-2.59,.77c-1.19,.35-1.86,1.61-1.51,2.79Z"/>
      <path class="cls-1" d="M230.49,58.47l.04,.07c.63,1.08,2.02,1.43,3.09,.79,.77-.46,1.54-.92,2.32-1.39,1.06-.64,1.41-2.01,.77-3.08-.01-.02-.03-.04-.04-.07-.64-1.06-2.01-1.41-3.07-.77-.77,.46-1.54,.92-2.32,1.38-1.06,.63-1.41,2-.79,3.06Z"/>
      <path class="cls-1" d="M126.63,91.28c-.89,.11-1.78,.22-2.68,.33-1.21,.15-2.08,1.23-1.96,2.45v.09c.13,1.25,1.26,2.15,2.51,2,.89-.11,1.78-.21,2.68-.32,1.24-.15,2.12-1.28,1.96-2.52v-.09c-.17-1.22-1.29-2.08-2.51-1.93Z"/>
      <path class="cls-1" d="M103.63,95.63v-.08c-.06-1.22-1.08-2.17-2.3-2.14l-2.7,.07c-1.23,.03-2.21,1.06-2.18,2.29v.08c.03,1.24,1.06,2.22,2.3,2.19l2.7-.07c1.25-.03,2.23-1.09,2.18-2.34Z"/>
      <path class="cls-1" d="M116.4,94.74v-.08c-.12-1.22-1.18-2.12-2.4-2.03l-2.69,.2c-1.23,.09-2.16,1.16-2.07,2.39v.08c.09,1.24,1.17,2.17,2.41,2.08l2.69-.2c1.25-.09,2.18-1.19,2.06-2.44Z"/>
      <path class="cls-1" d="M27.49,88.79l.02-.09c.27-1.2-.47-2.39-1.66-2.68l-2.64-.63c-1.18-.28-2.38,.44-2.69,1.62l-.02,.08c-.31,1.21,.43,2.45,1.64,2.74l2.65,.64c1.2,.29,2.42-.47,2.7-1.68Z"/>
      <path class="cls-1" d="M139.09,89.37l-2.65,.45c-1.2,.21-2.02,1.34-1.83,2.55v.08c.2,1.24,1.37,2.08,2.61,1.87,.88-.15,1.76-.3,2.65-.45,1.23-.21,2.06-1.39,1.83-2.62v-.08c-.24-1.21-1.39-2.01-2.6-1.8Z"/>
      <path class="cls-1" d="M287.08,15.85s-.02-.02-.03-.03c-.86-.88-2.27-.91-3.17-.06-.65,.61-1.29,1.23-1.94,1.84-.9,.85-.94,2.26-.1,3.17,.01,.01,.02,.02,.03,.03,.85,.93,2.3,.97,3.21,.1,.65-.62,1.29-1.23,1.94-1.85,.91-.87,.94-2.31,.06-3.21Z"/>
      <path class="cls-1" d="M222.29,65.62l2.39-1.27c1.1-.59,1.51-1.96,.9-3.06l-.04-.07c-.59-1.07-1.94-1.47-3.02-.9-.79,.42-1.59,.84-2.38,1.27-1.09,.58-1.51,1.93-.93,3.03l.04,.07c.58,1.1,1.94,1.51,3.04,.93Z"/>
      <path class="cls-1" d="M247.42,47.99l-.05-.07c-.69-1.01-2.06-1.29-3.09-.61-.75,.49-1.5,.99-2.25,1.48-1.02,.67-1.32,2.04-.66,3.07,.02,.02,.03,.05,.05,.07,.67,1.06,2.08,1.36,3.13,.68,.75-.49,1.5-.98,2.26-1.48,1.05-.69,1.33-2.1,.63-3.13Z"/>
      <path class="cls-1" d="M255.17,45.38c.73-.53,1.46-1.04,2.19-1.56,1.02-.73,1.24-2.14,.5-3.15-.02-.02-.03-.04-.05-.06-.73-.99-2.11-1.21-3.11-.5-.73,.52-1.45,1.04-2.19,1.56-1,.71-1.24,2.1-.54,3.11,.02,.02,.03,.05,.05,.07,.71,1.02,2.13,1.26,3.14,.54Z"/>
      <path class="cls-1" d="M262.35,37.18s.03,.04,.05,.07c.76,.99,2.19,1.16,3.17,.39,.7-.56,1.41-1.12,2.12-1.68,.98-.77,1.14-2.2,.35-3.17-.02-.02-.03-.04-.05-.06-.77-.96-2.17-1.11-3.14-.35-.7,.56-1.41,1.11-2.12,1.68-.96,.76-1.13,2.16-.38,3.13Z"/>
      <path class="cls-1" d="M70.89,95.13v.09c-.09,1.25,.86,2.32,2.11,2.39,.9,.05,1.8,.1,2.7,.15,1.24,.07,2.31-.89,2.36-2.13v-.09c.06-1.23-.88-2.27-2.11-2.34-.9-.05-1.8-.1-2.7-.15-1.23-.07-2.28,.86-2.36,2.09Z"/>
      <path class="cls-1" d="M60.17,96.52c.91,.09,1.8,.18,2.71,.28,1.24,.13,2.34-.78,2.46-2.01v-.07c.12-1.22-.76-2.31-1.98-2.44-.9-.1-1.8-.19-2.71-.29-1.22-.13-2.32,.74-2.47,1.96v.09c-.16,1.24,.74,2.37,1.99,2.5Z"/>
      <path class="cls-1" d="M47.46,94.87l2.68,.4c1.23,.18,2.37-.67,2.55-1.91v-.09c.18-1.22-.66-2.35-1.88-2.53-.89-.13-1.77-.27-2.67-.4-1.22-.18-2.35,.65-2.55,1.86v.09c-.21,1.23,.64,2.39,1.87,2.57Z"/>
      <path class="cls-1" d="M163.89,83.8c-.87,.23-1.74,.45-2.6,.68-1.18,.31-1.9,1.51-1.61,2.7l.02,.08c.3,1.22,1.53,1.95,2.75,1.64,.87-.23,1.73-.45,2.6-.68,1.21-.32,1.93-1.57,1.59-2.78,0-.02-.01-.05-.02-.07-.33-1.18-1.54-1.87-2.72-1.56Z"/>
      <path class="cls-1" d="M151.49,86.88c-.88,.19-1.75,.39-2.62,.58-1.19,.26-1.95,1.43-1.72,2.63l.02,.08c.24,1.23,1.45,2.02,2.68,1.75,.87-.19,1.74-.38,2.63-.57,1.21-.27,1.98-1.47,1.71-2.68l-.02-.08c-.27-1.2-1.47-1.97-2.67-1.7Z"/>
      <path class="cls-1" d="M83.72,95.72v.08c-.04,1.25,.96,2.29,2.21,2.31,.9,.01,1.8,.02,2.71,.03,1.24,.01,2.26-.98,2.27-2.22v-.08c.01-1.23-.98-2.25-2.21-2.26-.9-.01-1.8-.02-2.71-.03-1.22-.01-2.23,.95-2.27,2.18Z"/>
      <path class="cls-1" d="M277.73,24.54l-.06-.06c-.82-.91-2.21-.99-3.14-.19-.68,.59-1.36,1.18-2.05,1.78-.92,.8-1.04,2.19-.26,3.13l.04,.05c.8,.96,2.23,1.08,3.18,.27,.68-.58,1.37-1.17,2.06-1.77,.96-.82,1.05-2.27,.21-3.21Z"/>
      <rect class="cls-1" x="195.9" y="71.67" width="7.01" height="4.48" rx="2.24" ry="2.24" transform="translate(-13.23 77.42) rotate(-21.28)"/>
      <rect class="cls-1" x="183.89" y="76.41" width="7.01" height="4.48" rx="2.24" ry="2.24" transform="translate(-15.77 73.39) rotate(-21.28)"/>
      <rect class="cls-1" x="207.58" y="66.51" width="7.01" height="4.48" rx="2.24" ry="2.24" transform="translate(-9.14 96.8) rotate(-25.3)"/>
    </g>
  </g>
  <path class="cls-1" d="M294.55,6.14c-5.46,.27-10.92,.54-16.38,.82-1.1,.05-1.58,.81-1.16,1.81,0,.02,0,.05,0,.07,.15,.13,.3,.27,.44,.4,.1,0,.2,.02,.3,.03-.07,.24-.04,.54,.1,.86,0,.02,0,.04,0,.06,.13,.12,.26,.23,.39,.35,.3,.02,.61,.07,.91,.07-.19,.23-.22,.57-.06,.96,0,.01,0,.03,0,.05,.11,.1,.21,.19,.32,.29,.25,.02,.49,.06,.74,.05,0,0,0,0,0,.01l11-.49s-.02-.03-.03-.05c.01,0,.02,0,.04,0,0,.02,0,.03,0,.05l.36,10.88s0,0,0,0c.05-.05,.1-.11,.14-.16,0,.05,0,.1,0,.15,.01,.25,.09,.5,.13,.75,.11,.1,.21,.19,.32,.29,.31,.11,.61,.09,.91-.05,.05-.06,.1-.11,.15-.17,0,.03,0,.06,0,.09,.02,.31,.11,.61,.16,.92,.13,.12,.26,.23,.39,.35,.33,.12,.65,.1,.97-.02,.03,.12,.06,.25,.08,.37,.15,.13,.3,.27,.44,.4,.43,.15,.85,.13,1.27-.06,.13-.15,.27-.3,.4-.44,.03-.37,.09-.74,.08-1.1-.27-5.37-.55-10.74-.84-16.11-.06-1.09-.49-1.48-1.59-1.43Zm-1.98,3.83s0,.03,0,.04c0-.01-.02-.03-.03-.04,.01,0,.02,0,.03,0Z"/>
</svg>