<?xml version="1.0" encoding="UTF-8"?>
<svg id="Layer_1" data-name="Layer 1" xmlns="http://www.w3.org/2000/svg" viewBox="0 0 325.13 78.38">
  <defs>
    <style>
      .cls-1 {
        fill: #fcc76b;
      }
    </style>
  </defs>
  <g id="LA0F0k.tif">
    <g>
      <path class="cls-1" d="M37.72,51.45c.76-.48,1.52-.96,2.29-1.45,1.05-.67,2.45-.35,3.11,.71l.05,.08c.65,1.05,.33,2.42-.71,3.08-.76,.48-1.52,.96-2.29,1.44-1.03,.65-2.4,.36-3.07-.67l-.05-.07c-.69-1.05-.38-2.45,.68-3.12Z"/>
      <path class="cls-1" d="M16.38,69.47l-.06-.07c-.77-.98-.59-2.4,.4-3.16,.71-.55,1.42-1.09,2.15-1.65,.99-.76,2.41-.57,3.16,.42l.05,.07c.74,.98,.55,2.38-.42,3.13-.71,.55-1.42,1.09-2.14,1.65-.97,.75-2.37,.58-3.13-.39Z"/>
      <path class="cls-1" d="M168.79,9.88v-.08c-.1-1.24,.82-2.32,2.06-2.41l2.72-.2c1.23-.09,2.31,.86,2.38,2.1v.06c.08,1.22-.84,2.27-2.05,2.37l-2.69,.22c-1.24,.1-2.32-.82-2.42-2.06Z"/>
      <path class="cls-1" d="M232.56,12.22v-.08c.21-1.23,1.37-2.07,2.6-1.86,.89,.15,1.77,.3,2.66,.45,1.22,.21,2.05,1.37,1.84,2.59,0,.03,0,.05-.01,.08-.21,1.22-1.36,2.04-2.58,1.84-.89-.15-1.77-.3-2.66-.44-1.21-.2-2.04-1.35-1.85-2.56Z"/>
      <path class="cls-1" d="M123.88,19.34c-.87,.22-1.73,.44-2.61,.67-1.18,.3-2.39-.39-2.71-1.57l-.02-.09c-.34-1.21,.38-2.46,1.6-2.77,.87-.22,1.74-.45,2.62-.67,1.21-.31,2.44,.42,2.74,1.63l.02,.09c.29,1.19-.43,2.4-1.62,2.71Z"/>
      <path class="cls-1" d="M100.86,23.64l.03,.08c.39,1.16-.21,2.41-1.36,2.83l-2.54,.92c-1.16,.42-2.44-.18-2.86-1.34l-.03-.08c-.42-1.17,.18-2.45,1.35-2.87l2.54-.91c1.18-.42,2.47,.2,2.88,1.39Z"/>
      <path class="cls-1" d="M113.08,19.83l.02,.08c.34,1.17-.33,2.4-1.5,2.76l-2.58,.8c-1.18,.36-2.43-.3-2.8-1.48l-.02-.08c-.37-1.18,.3-2.44,1.48-2.81l2.58-.79c1.19-.37,2.46,.32,2.81,1.52Z"/>
      <path class="cls-1" d="M32.4,57.65l.05,.07c.69,1.02,.43,2.4-.58,3.1l-2.23,1.55c-1,.69-2.38,.46-3.09-.53l-.05-.07c-.73-1.02-.49-2.43,.54-3.15l2.23-1.56c1.01-.7,2.42-.45,3.13,.59Z"/>
      <path class="cls-1" d="M136.17,16.6l-2.63,.54c-1.2,.25-2.37-.52-2.64-1.71l-.02-.08c-.27-1.22,.51-2.43,1.74-2.68,.87-.18,1.75-.36,2.63-.54,1.22-.25,2.42,.55,2.65,1.78l.02,.08c.23,1.2-.55,2.37-1.75,2.61Z"/>
      <path class="cls-1" d="M300.76,31.38s-.01,.03-.02,.04c-.48,1.14-1.79,1.67-2.93,1.21-.83-.34-1.65-.67-2.48-1.01-1.14-.47-1.7-1.77-1.25-2.92,0-.01,.01-.03,.02-.04,.46-1.17,1.79-1.74,2.96-1.26,.83,.34,1.65,.68,2.48,1.02,1.16,.48,1.71,1.82,1.22,2.97Z"/>
      <path class="cls-1" d="M222.32,8.52l2.68,.32c1.24,.15,2.12,1.28,1.95,2.52v.07c-.17,1.22-1.28,2.08-2.5,1.93-.89-.11-1.78-.21-2.68-.32-1.23-.15-2.1-1.25-1.96-2.48v-.08c.15-1.23,1.27-2.12,2.5-1.97Z"/>
      <path class="cls-1" d="M252.14,15.84l-.02,.08c-.27,1.2-1.46,1.95-2.65,1.69-.88-.19-1.75-.37-2.64-.56-1.2-.26-1.97-1.42-1.73-2.62,0-.03,.01-.06,.02-.08,.24-1.23,1.44-2.02,2.67-1.76,.88,.19,1.75,.37,2.64,.56,1.22,.26,2,1.47,1.72,2.69Z"/>
      <path class="cls-1" d="M260.31,15.45c.88,.22,1.74,.44,2.61,.66,1.21,.31,1.94,1.55,1.61,2.75,0,.03-.01,.05-.02,.08-.32,1.18-1.53,1.89-2.72,1.59-.87-.22-1.73-.44-2.61-.66-1.19-.3-1.92-1.51-1.63-2.7,0-.03,.01-.05,.02-.08,.3-1.21,1.52-1.95,2.73-1.64Z"/>
      <path class="cls-1" d="M269.97,20.48s.02-.05,.02-.08c.35-1.2,1.62-1.88,2.81-1.51,.86,.26,1.72,.53,2.58,.8,1.19,.37,1.85,1.63,1.48,2.82,0,.03-.02,.05-.03,.08-.37,1.17-1.62,1.83-2.8,1.46-.86-.26-1.71-.53-2.58-.8-1.17-.36-1.84-1.6-1.49-2.77Z"/>
      <path class="cls-1" d="M70.53,35.99l-.04-.08c-.53-1.13-.04-2.48,1.1-2.99,.82-.37,1.64-.74,2.47-1.12,1.13-.51,2.47,0,2.98,1.13l.04,.08c.5,1.12,0,2.44-1.12,2.95-.82,.37-1.64,.75-2.46,1.12-1.12,.51-2.44,.03-2.96-1.09Z"/>
      <path class="cls-1" d="M60.05,38.58c.81-.42,1.61-.83,2.42-1.24,1.11-.57,2.46-.13,3.02,.98l.03,.06c.55,1.1,.12,2.43-.97,3-.8,.42-1.61,.83-2.42,1.25-1.09,.57-2.43,.15-3.01-.93l-.04-.08c-.59-1.1-.16-2.48,.96-3.05Z"/>
      <path class="cls-1" d="M48.8,44.73l2.35-1.34c1.08-.62,2.46-.23,3.06,.85l.04,.08c.6,1.07,.23,2.43-.84,3.04-.78,.45-1.56,.89-2.34,1.34-1.07,.61-2.43,.25-3.05-.81l-.05-.08c-.63-1.08-.26-2.46,.82-3.08Z"/>
      <path class="cls-1" d="M161.3,12.78c-.9,.11-1.78,.21-2.67,.31-1.22,.14-2.32-.72-2.48-1.93v-.08c-.18-1.24,.71-2.38,1.96-2.52,.89-.1,1.78-.21,2.67-.31,1.25-.14,2.37,.76,2.49,2.01,0,.02,0,.05,0,.07,.12,1.22-.76,2.3-1.97,2.44Z"/>
      <path class="cls-1" d="M148.64,14.41c-.89,.14-1.77,.28-2.66,.41-1.21,.19-2.34-.62-2.55-1.82v-.08c-.23-1.23,.61-2.41,1.84-2.6,.87-.14,1.76-.28,2.66-.42,1.23-.19,2.38,.65,2.57,1.88v.08c.2,1.22-.64,2.36-1.86,2.55Z"/>
      <path class="cls-1" d="M82.28,30.77l-.03-.08c-.49-1.15,.06-2.49,1.23-2.95,.83-.33,1.67-.67,2.51-1.01,1.15-.46,2.46,.09,2.92,1.25l.03,.08c.46,1.15-.1,2.45-1.24,2.91-.83,.34-1.67,.67-2.51,1.01-1.13,.46-2.43-.08-2.9-1.2Z"/>
      <path class="cls-1" d="M288.89,26.68l-.03,.08c-.43,1.14-1.7,1.73-2.85,1.32-.85-.3-1.7-.61-2.55-.91-1.15-.41-1.76-1.66-1.37-2.82l.02-.06c.4-1.18,1.68-1.82,2.86-1.41,.85,.3,1.7,.59,2.56,.9,1.19,.42,1.81,1.73,1.36,2.91Z"/>
      <rect class="cls-1" x="194.48" y="6.86" width="7.01" height="4.48" rx="2.24" ry="2.24"/>
      <rect class="cls-1" x="181.58" y="6.81" width="7.01" height="4.48" rx="2.24" ry="2.24"/>
      <rect class="cls-1" x="208.5" y="6.17" width="4.48" height="7.01" rx="2.24" ry="2.24" transform="translate(186.33 219.22) rotate(-85.98)"/>
    </g>
  </g>
  <path class="cls-1" d="M312.2,35.81c-1.69-5.11-3.37-10.21-5.07-15.32-.12-.35-.31-.67-.47-1-.18-.09-.36-.18-.53-.27-.46-.03-.86,.1-1.2,.4-.09,.18-.18,.36-.27,.54,.02,.12,.04,.25,.06,.37-.34,0-.65,.11-.91,.33-.08,.16-.16,.31-.23,.47,.06,.3,.08,.62,.18,.91,0,.03,.02,.06,.03,.09-.07-.03-.13-.07-.2-.1-.33-.02-.61,.07-.86,.29-.06,.13-.13,.26-.19,.38,.05,.25,.07,.51,.15,.75,.02,.05,.03,.09,.05,.14-.06-.03-.13-.06-.19-.1,0,0,0,0,0,0l3.61,10.27s.01,.03,.02,.04c-.01,0-.02,0-.03,.01,0-.02,0-.04,.01-.06l-10.43,3.53s0,0,0,0c-.23,.08-.45,.21-.67,.32-.06,.13-.13,.26-.19,.38,0,.02,.02,.03,.02,.05-.01,.43,.14,.73,.4,.88-.29,.1-.55,.26-.83,.39-.08,.16-.16,.31-.23,.47,0,.02,.02,.04,.02,.06,0,.35,.07,.63,.22,.84-.09,.05-.18,.09-.27,.14-.09,.18-.18,.36-.27,.53,0,.02,.02,.05,.02,.07-.03,1.09,.69,1.62,1.74,1.27,5.19-1.73,10.37-3.46,15.56-5.18,1.04-.35,1.31-.87,.96-1.91Zm-4.23-.93s0-.03,0-.05c0,.01,.01,.02,.02,.04-.01,0-.02,0-.03,.01Z"/>
</svg>