<?xml version="1.0" encoding="UTF-8"?>
<svg id="Layer_1" data-name="Layer 1" xmlns="http://www.w3.org/2000/svg" xmlns:xlink="http://www.w3.org/1999/xlink" viewBox="0 0 54 52">
  <defs>
    <style>
      .cls-1 {
        fill: none;
        stroke: url(#linear-gradient);
        stroke-miterlimit: 10;
        stroke-width: 3px;
      }

      .cls-2 {
        fill: #494949;
      }
    </style>
    <linearGradient id="linear-gradient" x1="14.94" y1="43.41" x2="35.82" y2="7.24" gradientUnits="userSpaceOnUse">
      <stop offset="0" stop-color="#ffc35c"/>
      <stop offset=".23" stop-color="#ffbd56"/>
      <stop offset=".51" stop-color="#ffaf47"/>
      <stop offset=".83" stop-color="#ff972d"/>
      <stop offset="1" stop-color="#ff881d"/>
    </linearGradient>
  </defs>
  <circle class="cls-1" cx="25.38" cy="25.33" r="19.38"/>
  <g id="_0ArrRw.tif" data-name="0ArrRw.tif">
    <path class="cls-2" d="M23.63,28.84c.07-.1,.11-.21,.18-.28,3.32-3.33,6.65-6.65,9.98-9.98,.5-.5,1.08-.69,1.76-.45,1.04,.37,1.38,1.66,.68,2.51-.06,.07-.13,.14-.2,.21-3.74,3.74-7.49,7.48-11.23,11.23-.34,.34-.72,.56-1.22,.56-.44,0-.82-.14-1.12-.45-1.92-1.91-3.84-3.82-5.74-5.74-.64-.64-.61-1.63,.02-2.25,.63-.61,1.61-.61,2.25,.03,1.46,1.45,2.91,2.9,4.36,4.35,.07,.07,.14,.13,.27,.26Z"/>
  </g>
</svg>