<?xml version="1.0" encoding="UTF-8"?>
<svg id="Layer_1" data-name="Layer 1" xmlns="http://www.w3.org/2000/svg" viewBox="0 0 1465.99 57.32">
  <defs>
    <style>
      .cls-1 {
        fill: none;
        stroke: #4f4f4f;
        stroke-miterlimit: 10;
        stroke-width: 4px;
      }
    </style>
  </defs>
  <path class="cls-1" d="M.07,36.45c196.49-6.85,344.3-11.42,414.63-14.14,0,0,21.37-.82,135.83,1.09,0,0,10.17,.17,52.42,4.35,14.04,1.39,21.77,2.34,26.21,5.44,6.38,4.44,3.98,10.95-2.38,15.23-7.94,5.34-23.15,8.05-36.27,6.45-18.79-2.29-26.23-12.56-24.85-19.53,.54-2.73,3.49-10.33,31.75-18.9,61.74-18.73,152.53-14.24,171.19-13.23,121.09,6.58,135.51,16.3,231.93,23.31,106.06,7.71,193.06,3.55,280.25-.63,74.91-3.59,137.82-9.32,184.99-14.49"/>
</svg>