<?xml version="1.0" encoding="UTF-8"?>
<svg id="Layer_1" data-name="Layer 1" xmlns="http://www.w3.org/2000/svg" viewBox="0 0 41 37">
  <defs>
    <style>
      .cls-1 {
        fill: #4c4c4c;
      }
    </style>
  </defs>
  <g id="oY8gGr.tif">
    <path class="cls-1" d="M29.59,15.64c.15,1.28,.06,2.58-.33,3.8-.33,1.01-.75,1.69-1.32,2.87-.37,.78-.33,1.14,.22,1.68,1.43,1.39,2.83,2.82,4.24,4.23,.55,.55,.96,1.13,.29,1.83-.69,.72-1.28,.28-1.82-.25-1.45-1.44-2.92-2.86-4.34-4.33-.4-.41-1.03-.5-1.52-.2-6.9,4.16-15.06,.13-15.65-7.9-.32-4.46,2.21-8.81,7.52-10.29,5.7-1.6,11.93,2.05,12.71,8.57Zm-17.94,1.1c-.02,4.26,3.51,7.87,7.71,7.88,4.3,.01,7.92-3.56,7.93-7.83,0-4.36-3.54-7.98-7.79-7.96-4.33,.02-7.82,3.54-7.84,7.91Z"/>
  </g>
</svg>