<?xml version="1.0" encoding="UTF-8"?>
<svg id="Layer_1" data-name="Layer 1" xmlns="http://www.w3.org/2000/svg" viewBox="0 0 153 179">
  <defs>
    <style>
      .cls-1, .cls-2 {
        fill: #494949;
      }

      .cls-2 {
        stroke-width: 2px;
      }

      .cls-2, .cls-3, .cls-4, .cls-5, .cls-6 {
        stroke-miterlimit: 10;
      }

      .cls-2, .cls-4, .cls-5 {
        stroke: #494949;
      }

      .cls-3 {
        stroke-width: .75px;
      }

      .cls-3, .cls-4, .cls-5, .cls-6 {
        fill: none;
      }

      .cls-3, .cls-6 {
        stroke: #515151;
      }

      .cls-4 {
        stroke-width: 4px;
      }

      .cls-7 {
        opacity: .22;
      }

      .cls-8 {
        opacity: .46;
      }

      .cls-6 {
        stroke-width: .5px;
      }
    </style>
  </defs>
  <g>
    <path class="cls-2" d="M81.15,100.48v8.42h-10.64v14.88c0,1.83,.09,3.58,.27,5.23,.18,1.65,.6,3.15,1.26,4.48,.66,1.33,1.61,2.41,2.87,3.23s2.96,1.29,5.11,1.41c2.47,0,4.88-.62,7.23-1.85,2.35-1.23,4.42-2.85,6.22-4.84,1.79-1.99,3.23-4.19,4.3-6.61,1.08-2.41,1.61-4.81,1.61-7.2,0-2.23-.58-4.3-1.73-6.22-1.16-1.91-3.05-3.47-5.68-4.66l7.23-5.68c2.99,2.23,5.18,4.76,6.57,7.59,1.39,2.83,2.09,5.78,2.09,8.85,0,3.47-.74,6.92-2.21,10.37-1.47,3.45-3.47,6.57-5.98,9.35-2.51,2.79-5.39,5.05-8.64,6.78-3.25,1.73-6.64,2.6-10.19,2.6-3.98,0-7.2-.76-9.65-2.27-2.45-1.51-4.35-3.52-5.71-6.01-1.35-2.49-2.27-5.34-2.75-8.55-.48-3.21-.72-6.52-.72-9.95v-10.94h-14.22v-8.42h14.22v-12.37c0-1.51-.08-3.05-.24-4.6-.16-1.55-.52-2.98-1.08-4.27-.56-1.29-1.37-2.38-2.42-3.26-1.06-.88-2.5-1.39-4.33-1.55l3.94-6.34c2.75,1.16,4.96,2.32,6.63,3.5,1.67,1.18,2.95,2.53,3.82,4.06,.88,1.53,1.45,3.37,1.73,5.5,.28,2.13,.42,4.73,.42,7.8v11.54h10.64Z"/>
    <path class="cls-1" d="M81.15,100.48v8.42h-10.64v14.88c0,1.83,.09,3.58,.27,5.23,.18,1.65,.6,3.15,1.26,4.48,.66,1.33,1.61,2.41,2.87,3.23s2.96,1.29,5.11,1.41c2.47,0,4.88-.62,7.23-1.85,2.35-1.23,4.42-2.85,6.22-4.84,1.79-1.99,3.23-4.19,4.3-6.61,1.08-2.41,1.61-4.81,1.61-7.2,0-2.23-.58-4.3-1.73-6.22-1.16-1.91-3.05-3.47-5.68-4.66l7.23-5.68c2.99,2.23,5.18,4.76,6.57,7.59,1.39,2.83,2.09,5.78,2.09,8.85,0,3.47-.74,6.92-2.21,10.37-1.47,3.45-3.47,6.57-5.98,9.35-2.51,2.79-5.39,5.05-8.64,6.78-3.25,1.73-6.64,2.6-10.19,2.6-3.98,0-7.2-.76-9.65-2.27-2.45-1.51-4.35-3.52-5.71-6.01-1.35-2.49-2.27-5.34-2.75-8.55-.48-3.21-.72-6.52-.72-9.95v-10.94h-14.22v-8.42h14.22v-12.37c0-1.51-.08-3.05-.24-4.6-.16-1.55-.52-2.98-1.08-4.27-.56-1.29-1.37-2.38-2.42-3.26-1.06-.88-2.5-1.39-4.33-1.55l3.94-6.34c2.75,1.16,4.96,2.32,6.63,3.5,1.67,1.18,2.95,2.53,3.82,4.06,.88,1.53,1.45,3.37,1.73,5.5,.28,2.13,.42,4.73,.42,7.8v11.54h10.64Z"/>
    <path class="cls-5" d="M81.15,100.48v8.42h-10.64v14.88c0,1.83,.09,3.58,.27,5.23,.18,1.65,.6,3.15,1.26,4.48,.66,1.33,1.61,2.41,2.87,3.23s2.96,1.29,5.11,1.41c2.47,0,4.88-.62,7.23-1.85,2.35-1.23,4.42-2.85,6.22-4.84,1.79-1.99,3.23-4.19,4.3-6.61,1.08-2.41,1.61-4.81,1.61-7.2,0-2.23-.58-4.3-1.73-6.22-1.16-1.91-3.05-3.47-5.68-4.66l7.23-5.68c2.99,2.23,5.18,4.76,6.57,7.59,1.39,2.83,2.09,5.78,2.09,8.85,0,3.47-.74,6.92-2.21,10.37-1.47,3.45-3.47,6.57-5.98,9.35-2.51,2.79-5.39,5.05-8.64,6.78-3.25,1.73-6.64,2.6-10.19,2.6-3.98,0-7.2-.76-9.65-2.27-2.45-1.51-4.35-3.52-5.71-6.01-1.35-2.49-2.27-5.34-2.75-8.55-.48-3.21-.72-6.52-.72-9.95v-10.94h-14.22v-8.42h14.22v-12.37c0-1.51-.08-3.05-.24-4.6-.16-1.55-.52-2.98-1.08-4.27-.56-1.29-1.37-2.38-2.42-3.26-1.06-.88-2.5-1.39-4.33-1.55l3.94-6.34c2.75,1.16,4.96,2.32,6.63,3.5,1.67,1.18,2.95,2.53,3.82,4.06,.88,1.53,1.45,3.37,1.73,5.5,.28,2.13,.42,4.73,.42,7.8v11.54h10.64Z"/>
  </g>
  <path class="cls-4" d="M41.77,163.17c-22.83-10.55-27.88-30.76-29.38-36.76-.77-3.09-7.03-30.09,12.28-48.53,8.36-7.98,13.47-6.68,22.51-16.73,2.58-2.87,16.88-18.76,10.6-30.94-3.74-7.26-13.55-10.8-12.73-11.77,.92-1.09,10.94,6.03,20.02,3.3,5.25-1.57,6.16-5.22,11.46-5.6,4.12-.29,5.45,1.78,10.07,2.44,3.27,.47,8.35,.26,15.57-3.52-1.67,2.44-3.98,6.27-5.66,11.2-1.88,5.5-5.67,16.56,.6,25.28,2.2,3.06,3.32,2.6,12.31,9.43,0,0,8.83,6.71,15.49,13.2,13.88,13.53,13.59,33.78,13.49,37-.17,5.62-.87,29.4-24.49,45.44-15.85,10.76-33.37,12.16-37.69,12.41-4.71,.28-19.56,1-34.43-5.87Z"/>
  <g class="cls-7">
    <path class="cls-6" d="M64.08,27.86c.58,3.59,.99,8.53,.32,14.32-1.12,9.69-4.72,16.86-7.04,20.75"/>
    <path class="cls-6" d="M90.49,24.31c-1.41,3.5-2.82,8.36-2.83,14.19-.03,9.76,3.85,17.3,6.47,21.44"/>
    <path class="cls-6" d="M85.21,26.23c-1.41,4.39-2.82,10.47-2.83,17.78-.03,12.23,3.85,21.68,6.47,26.87"/>
    <path class="cls-6" d="M68.85,27.17c1.03,4.21,2.05,10.05,2.06,17.05,.02,11.73-2.79,20.8-4.7,25.77"/>
    <path class="cls-6" d="M76.73,28.96c.29,4.21,.58,10.05,.58,17.05,0,11.73-.79,20.8-1.32,25.77"/>
  </g>
  <g class="cls-8">
    <path class="cls-3" d="M31.3,95.05c-1.74,3.95-3.3,9.33-2.64,15.51,1.1,10.35,7.88,17.69,12.36,21.63"/>
    <path class="cls-3" d="M23.49,97.97c-1.64,4.89-3.05,11.58-2.22,19.32,1.39,12.97,8.39,22.33,12.99,27.39"/>
  </g>
</svg>