<?xml version="1.0" encoding="UTF-8"?>
<svg id="Layer_1" data-name="Layer 1" xmlns="http://www.w3.org/2000/svg" viewBox="0 0 88 96">
  <defs>
    <style>
      .cls-1 {
        fill: #4d4d4f;
      }
    </style>
  </defs>
  <g id="V6bmWA.tif">
    <path class="cls-1" d="M23.56,81.45c.66-.85,1.23-1.78,1.98-2.53,10.15-10.21,20.32-20.39,30.49-30.59,.28-.28,.54-.57,1.04-1.1-.4-.28-.81-.47-1.11-.77-10.18-10.18-20.35-20.37-30.49-30.58-.72-.73-1.27-1.63-1.91-2.45,0-.58,0-1.16,0-1.74,.51-1.23,1.38-2.1,2.61-2.62h1.74c.85,.66,1.77,1.23,2.53,1.99,11.09,11.08,22.16,22.18,33.23,33.28,2.25,2.25,2.24,3.96-.02,6.22-11.25,11.28-22.5,22.56-33.75,33.83-2.26,2.27-4.83,1.83-6.18-1.04-.03-.06-.1-.1-.15-.15v-1.74Z"/>
  </g>
</svg>