<?xml version="1.0" encoding="UTF-8"?>
<svg id="Layer_1" data-name="Layer 1" xmlns="http://www.w3.org/2000/svg" viewBox="0 0 56 56">
  <defs>
    <style>
      .cls-1 {
        fill: none;
        stroke: #13e241;
        stroke-miterlimit: 10;
        stroke-width: 3px;
      }

      .cls-2 {
        fill: #494949;
      }
    </style>
  </defs>
  <circle class="cls-1" cx="27.38" cy="29.33" r="19.38"/>
  <g id="_0ArrRw.tif" data-name="0ArrRw.tif">
    <path class="cls-2" d="M25.63,32.84c.07-.1,.11-.21,.18-.28,3.32-3.33,6.65-6.65,9.98-9.98,.5-.5,1.08-.69,1.76-.45,1.04,.37,1.38,1.66,.68,2.51-.06,.07-.13,.14-.2,.21-3.74,3.74-7.49,7.48-11.23,11.23-.34,.34-.72,.56-1.22,.56-.44,0-.82-.14-1.12-.45-1.92-1.91-3.84-3.82-5.74-5.74-.64-.64-.61-1.63,.02-2.25,.63-.61,1.61-.61,2.25,.03,1.46,1.45,2.91,2.9,4.36,4.35,.07,.07,.14,.13,.27,.26Z"/>
  </g>
</svg>