<?xml version="1.0" encoding="UTF-8"?>
<svg id="Layer_1" data-name="Layer 1" xmlns="http://www.w3.org/2000/svg" xmlns:xlink="http://www.w3.org/1999/xlink" viewBox="0 0 55 47">
  <defs>
    <style>
      .cls-1 {
        stroke: url(#linear-gradient-2);
      }

      .cls-1, .cls-2, .cls-3 {
        fill: none;
        stroke-miterlimit: 10;
      }

      .cls-2 {
        stroke: url(#linear-gradient-3);
      }

      .cls-4 {
        fill: #fff;
      }

      .cls-3 {
        stroke: url(#linear-gradient);
      }
    </style>
    <linearGradient id="linear-gradient" x1="11.21" y1="28.48" x2="35.89" y2="28.48" gradientUnits="userSpaceOnUse">
      <stop offset="0" stop-color="#fff"/>
      <stop offset=".19" stop-color="#faf9fa"/>
      <stop offset=".43" stop-color="#eceaeb"/>
      <stop offset=".69" stop-color="#d5d0d4"/>
      <stop offset=".81" stop-color="#c9c3c8"/>
      <stop offset=".87" stop-color="#d7d3d6"/>
      <stop offset="1" stop-color="#fdfdfd"/>
      <stop offset="1" stop-color="#fff"/>
    </linearGradient>
    <linearGradient id="linear-gradient-2" x1="-50.82" y1="-283.5" x2="-36.56" y2="-283.5" gradientTransform="translate(58.83 303.83) rotate(4.99)" xlink:href="#linear-gradient"/>
    <linearGradient id="linear-gradient-3" x1="16.75" y1="27.92" x2="30.34" y2="27.92" xlink:href="#linear-gradient"/>
  </defs>
  <polygon class="cls-3" points="33.73 31.21 35.31 28.48 33.73 25.75 33.73 22.6 31 21.03 29.43 18.3 26.28 18.3 23.55 16.72 20.82 18.3 17.66 18.3 16.09 21.03 13.36 22.6 13.36 25.75 11.78 28.48 13.36 31.21 13.36 34.37 16.09 35.94 17.66 38.67 20.82 38.67 23.55 40.25 26.28 38.67 29.43 38.67 31 35.94 33.73 34.37 33.73 31.21"/>
  <polygon class="cls-1" points="45.49 19.61 46.5 18.18 45.75 16.58 45.91 14.84 44.47 13.83 43.73 12.24 41.98 12.08 40.54 11.08 38.95 11.82 37.2 11.67 36.19 13.11 34.6 13.85 34.45 15.6 33.44 17.04 34.18 18.63 34.03 20.38 35.47 21.38 36.21 22.97 37.96 23.13 39.4 24.13 40.99 23.39 42.74 23.54 43.75 22.11 45.34 21.36 45.49 19.61"/>
  <polygon class="cls-2" points="23.55 22.58 25.32 26.16 29.27 26.74 26.41 29.53 27.08 33.47 23.55 31.61 20.01 33.47 20.69 29.53 17.82 26.74 21.78 26.16 23.55 22.58"/>
  <polygon class="cls-4" points="42.96 17.09 40.49 17.09 40.49 14.61 39.45 14.61 39.45 17.09 36.97 17.09 36.97 18.12 39.45 18.12 39.45 20.6 40.49 20.6 40.49 18.12 42.96 18.12 42.96 17.09"/>
</svg>