<?xml version="1.0" encoding="UTF-8"?>
<svg id="Layer_1" data-name="Layer 1" xmlns="http://www.w3.org/2000/svg" viewBox="0 0 174 197">
  <defs>
    <style>
      .cls-1 {
        fill: #fefefe;
      }

      .cls-2 {
        fill: #c3012b;
      }

      .cls-3 {
        fill: #dc012e;
      }
    </style>
  </defs>
  <g id="vGKoY9.tif">
    <g>
      <path class="cls-2" d="M89.49,39.76c1.83,.38,3.53,1.15,5.28,1.77,11.92,4.19,23.82,8.42,35.73,12.63,6.64,2.35,13.28,4.71,19.92,7.04,.55,.19,.71,.43,.65,1.02-1.74,15.01-3.46,30.02-5.18,45.04-1.25,10.91-2.54,21.81-3.7,32.72-.21,2.01-.84,3.24-2.74,4.27-12.35,6.72-24.6,13.61-36.89,20.45-3.91,2.17-7.81,4.35-11.72,6.53-.35,.2-.73,.35-1.09,.52-.42-.34-.24-.82-.24-1.24,0-16.34,0-32.68,0-49.02,.34-.02,.67-.06,1.01-.06,4.74,0,9.49,.02,14.23-.02,.82,0,1.17,.25,1.46,1,2.11,5.39,4.27,10.76,6.42,16.14,.76,1.9,.78,1.9,2.86,1.9,3.83,0,7.66-.02,11.49,.01,.82,0,.93-.21,.58-.91-.44-.88-.81-1.79-1.21-2.69-4.85-10.89-9.7-21.78-14.55-32.67-5.69-12.77-11.39-25.55-17.09-38.32-1.72-3.86-3.48-7.71-5.22-11.57,0-4.85,0-9.7,0-14.55Z"/>
      <path class="cls-3" d="M89.49,39.76c0,4.85,0,9.7,0,14.55-.09,.14-.19,.28-.26,.43-4.8,10.76-9.6,21.53-14.39,32.29-4.48,10.05-8.96,20.11-13.44,30.16-3.31,7.42-6.61,14.85-9.94,22.27-.36,.8-.26,1.01,.65,1.01,4.17-.04,8.34-.03,12.51,0,.7,0,1.06-.17,1.34-.88,2.28-5.8,4.62-11.58,6.91-17.37,.24-.6,.54-.82,1.18-.81,1.86,.04,3.73,0,5.59,.02,3.29,.02,6.57,.04,9.86,.06,0,16.34,0,32.68,0,49.02,0,.42-.18,.89,.24,1.24-.5,.39-.83-.1-1.16-.29-7.88-4.37-15.75-8.75-23.63-13.13-8.88-4.94-17.75-9.89-26.66-14.8-.85-.47-1.18-1.02-1.28-1.95-1.59-14.04-3.22-28.07-4.84-42.11-1.11-9.69-2.21-19.39-3.32-29.08-.31-2.69-.59-5.39-.95-8.08-.09-.68,.12-.94,.74-1.15,18.08-6.37,36.14-12.77,54.22-19.15,2.2-.78,4.35-1.69,6.62-2.25Z"/>
      <path class="cls-1" d="M89.49,121.49c-3.29-.02-6.57-.05-9.86-.06-1.86,0-3.73,.03-5.59-.02-.65-.02-.95,.21-1.18,.81-2.29,5.79-4.63,11.57-6.91,17.37-.28,.7-.63,.88-1.34,.88-4.17-.03-8.34-.04-12.51,0-.91,0-1.01-.21-.65-1.01,3.33-7.41,6.63-14.84,9.94-22.27,4.48-10.05,8.96-20.11,13.44-30.16,4.8-10.76,9.59-21.53,14.39-32.29,.07-.15,.17-.29,.26-.43,1.74,3.86,3.49,7.7,5.22,11.57,5.7,12.77,11.4,25.55,17.09,38.32,4.85,10.89,9.7,21.78,14.55,32.67,.4,.9,.77,1.81,1.21,2.69,.34,.69,.23,.91-.58,.91-3.83-.03-7.66-.01-11.49-.01-2.09,0-2.1,0-2.86-1.9-2.15-5.37-4.32-10.75-6.42-16.14-.3-.76-.64-1.01-1.46-1-4.74,.04-9.49,.02-14.23,.02-.34,0-.67,.04-1.01,.06Zm11.22-12.5c-.1-.32-.18-.65-.31-.96-2.04-4.83-4.07-9.65-6.12-14.47-1.44-3.39-2.91-6.76-4.37-10.14-.04-.36-.14-.69-.5-.96-3.78,8.95-7.54,17.82-11.32,26.76h11.6c3.66,.06,7.33,.1,10.99-.02,.25-.04,.14-.13,.03-.21Z"/>
      <path class="cls-3" d="M89.68,109.22h-11.6c3.78-8.94,7.53-17.82,11.32-26.76,.36,.27,.45,.6,.5,.96-.36,.33-.21,.76-.21,1.15,0,8.22,0,16.43,0,24.65Z"/>
      <path class="cls-2" d="M89.68,109.22c0-8.22,0-16.43,0-24.65,0-.39-.15-.82,.21-1.15,1.46,3.38,2.92,6.75,4.37,10.14,2.05,4.82,4.09,9.65,6.12,14.47,.13,.31,.21,.64,.31,.96,0,.07-.02,.14-.03,.21-3.66,.11-7.33,.08-10.99,.02Z"/>
      <path class="cls-3" d="M100.68,109.21c0-.07,.02-.14,.03-.21,.11,.09,.22,.17-.03,.21Z"/>
    </g>
  </g>
</svg>